<?xml version="1.0" encoding="UTF-8"?>
<svg id="SVGDoc" width="73" height="63" xmlns="http://www.w3.org/2000/svg" version="1.1" xmlns:xlink="http://www.w3.org/1999/xlink" xmlns:avocode="https://avocode.com/" viewBox="0 0 73 63"><defs></defs><desc>Generated with Avocode.</desc><g><g><title>HEART</title><path d="M52.10112,0.03981c-5.39818,0 -9.72512,1.93276 -13.54194,5.73842c-0.00215,0.00158 -0.00422,0.00369 -0.00629,0.00607c-0.00043,0.00026 -0.00114,0.00106 -0.00157,0.00132l-2.16916,2.72217v0l-2.16944,-2.55891c-0.00193,-0.00237 -0.00422,-0.00422 -0.00637,-0.00686c-0.00036,0 -0.00086,-0.00053 -0.00114,-0.00079v0c-3.81718,-3.80566 -8.14397,-5.90142 -13.54208,-5.90142c-5.39825,0 -10.4737,2.09576 -14.29067,5.90142c-3.81696,3.80539 -5.9191,8.86492 -5.91924,14.24675c-0.00021,5.37919 2.09963,10.43635 5.91309,14.24147l26.82688,26.97008c0.84329,0.84769 1.99127,1.32482 3.18897,1.32482c1.19741,0 2.34561,-0.47712 3.1889,-1.32482l26.82531,-26.96849c3.81374,-3.80513 5.91466,-8.86281 5.91481,-14.24227c0.00021,-5.38209 -2.10207,-10.44188 -5.91938,-14.24754c-3.81753,-3.80566 -8.89249,-5.90142 -14.29067,-5.90142z" fill="#ffffff" fill-opacity="1"></path></g></g></svg>