<svg xmlns="http://www.w3.org/2000/svg" width="21" height="20" viewBox="0 0 21 20"><g><g><path fill="#fff" d="M18.454 20H3.182C1.776 20 .636 18.88.636 17.5v-15c0-1.381 1.14-2.5 2.546-2.5h15.272C19.86 0 21 1.119 21 2.5v15c0 1.38-1.14 2.5-2.546 2.5zM10.818 6.125a3.947 3.947 0 0 0-3.578 2.25h-.004c-.006.014-.01.029-.017.042-.037.082-.07.167-.102.252-.015.04-.032.08-.046.121a3.813 3.813 0 0 0-.075.265c-.011.042-.024.083-.033.126-.02.094-.035.19-.049.287-.005.04-.014.077-.018.117a3.853 3.853 0 0 0-.023.415c0 2.14 1.766 3.875 3.945 3.875 2.18 0 3.946-1.735 3.946-3.875 0-.14-.009-.279-.024-.415-.004-.04-.012-.078-.018-.117a3.843 3.843 0 0 0-.049-.287c-.009-.043-.022-.084-.032-.126a3.738 3.738 0 0 0-.076-.265l-.045-.121a3.782 3.782 0 0 0-.103-.252c-.006-.013-.01-.028-.017-.042h-.004a3.947 3.947 0 0 0-3.578-2.25zM18.71 3.25c0-.553-.456-1-1.018-1h-2.036a1.01 1.01 0 0 0-1.019 1v2c0 .552.456 1 1.019 1h2.036a1.01 1.01 0 0 0 1.018-1zm0 5.125h-1.877c.145.517.222 1.062.222 1.625 0 3.382-2.792 6.124-6.236 6.124S4.582 13.382 4.582 10c0-.563.077-1.108.222-1.625H2.927v8.375c0 .552.456 1 1.018 1h13.746a1.01 1.01 0 0 0 1.018-1z"/><path fill="#e4e4e4" d="M18.454 20H3.182C1.776 20 .636 18.88.636 17.5v-15c0-1.381 1.14-2.5 2.546-2.5h15.272C19.86 0 21 1.119 21 2.5v15c0 1.38-1.14 2.5-2.546 2.5zM10.818 6.125a3.947 3.947 0 0 0-3.578 2.25h-.004c-.006.014-.01.029-.017.042-.037.082-.07.167-.102.252-.015.04-.032.08-.046.121a3.813 3.813 0 0 0-.075.265c-.011.042-.024.083-.033.126-.02.094-.035.19-.049.287-.005.04-.014.077-.018.117a3.853 3.853 0 0 0-.023.415c0 2.14 1.766 3.875 3.945 3.875 2.18 0 3.946-1.735 3.946-3.875 0-.14-.009-.279-.024-.415-.004-.04-.012-.078-.018-.117a3.843 3.843 0 0 0-.049-.287c-.009-.043-.022-.084-.032-.126a3.738 3.738 0 0 0-.076-.265l-.045-.121a3.782 3.782 0 0 0-.103-.252c-.006-.013-.01-.028-.017-.042h-.004a3.947 3.947 0 0 0-3.578-2.25zM18.71 3.25c0-.553-.456-1-1.018-1h-2.036a1.01 1.01 0 0 0-1.019 1v2c0 .552.456 1 1.019 1h2.036a1.01 1.01 0 0 0 1.018-1zm0 5.125h-1.877c.145.517.222 1.062.222 1.625 0 3.382-2.792 6.124-6.236 6.124S4.582 13.382 4.582 10c0-.563.077-1.108.222-1.625H2.927v8.375c0 .552.456 1 1.018 1h13.746a1.01 1.01 0 0 0 1.018-1z"/></g></g></svg>