<?xml version="1.0" encoding="UTF-8"?>
<svg id="SVGDoc" width="64" height="54" xmlns="http://www.w3.org/2000/svg" version="1.1" xmlns:xlink="http://www.w3.org/1999/xlink" xmlns:avocode="https://avocode.com/" viewBox="0 0 64 54"><defs></defs><desc>Generated with Avocode.</desc><g><g><title>LINE GRAPH</title><path d="M62.70761,18.46626v0l-0.02968,0.02084c-0.00043,0.00026 -0.00079,0.00053 -0.00122,0.00053l-25.96908,17.97882v0l-0.00179,-0.00237c-0.4848,0.33628 -1.07117,0.53568 -1.70588,0.53568c-0.61555,0 -1.18718,-0.18647 -1.6634,-0.50482l-0.00072,0.00132v0l-0.01059,-0.00739c-0.00165,-0.00079 -0.00315,-0.00185 -0.00458,-0.0029l-13.42041,-8.94695v0l-13.90035,8.17653v0v12.28418v0h55.00009c1.65675,0 3,1.34328 3,3.00016c0,1.65688 -1.34325,2.9999 -3,2.9999h-58.00016c-1.65675,0 -2.99993,-1.34302 -2.99993,-2.9999v-47.99996c0,-1.65714 1.34318,-2.9999 2.99993,-2.9999c1.65689,0 3.00007,1.34275 3.00007,2.9999v25.75498v0l12.479,-7.34071v0l0.00587,0.00976c0.44618,-0.26296 0.95966,-0.42411 1.5152,-0.42411c0.61569,0 1.18718,0.187 1.66347,0.50482l0.00057,-0.00079v0l0.01066,0.00686c0.00165,0.00132 0.00308,0.00211 0.00458,0.00343l13.28888,8.85912v0l24.3242,-16.84021v0l0.00186,0.00264c0.48466,-0.33628 1.07117,-0.53594 1.70581,-0.53594c1.65675,0 3,1.34328 3,2.9999c0,1.0223 -0.51341,1.92274 -1.29411,2.46422z" fill="#ffffff" fill-opacity="1"></path></g></g></svg>