<?xml version="1.0" encoding="UTF-8"?>
<svg id="SVGDoc" width="19" height="13" xmlns="http://www.w3.org/2000/svg" version="1.1" xmlns:xlink="http://www.w3.org/1999/xlink" xmlns:avocode="https://avocode.com/" viewBox="0 0 19 13"><defs></defs><desc>Generated with Avocode.</desc><g><g><title>MAIL</title><path d="M12.95036,5.83203l5.78413,-5.57648c0.16365,0.16089 0.26543,0.38376 0.26543,0.63063v11.22707c0,0.23342 -0.09227,0.44363 -0.24011,0.60214zM0.29627,0.23023c0.15793,-0.1419 0.36492,-0.23052 0.59431,-0.23052h17.21878c0.22931,0 0.43631,0.08862 0.59423,0.23052l-9.20362,7.15582zM0.24005,12.71539c-0.14784,-0.15851 -0.24011,-0.36872 -0.24011,-0.60214v-11.22707c0,-0.24687 0.10178,-0.46974 0.26543,-0.63063l5.7842,5.57648zM9.49997,9.15871l2.41528,-2.32839l6.80466,5.92568c-0.15957,0.15007 -0.37358,0.24371 -0.61054,0.24371h-17.21878c-0.23704,0 -0.45104,-0.09363 -0.61054,-0.24371l6.80466,-5.92568z" fill="#ffffff" fill-opacity="1"></path><path d="M12.95036,5.83203l5.78413,-5.57648c0.16365,0.16089 0.26543,0.38376 0.26543,0.63063v11.22707c0,0.23342 -0.09227,0.44363 -0.24011,0.60214zM0.29627,0.23023c0.15793,-0.1419 0.36492,-0.23052 0.59431,-0.23052h17.21878c0.22931,0 0.43631,0.08862 0.59423,0.23052l-9.20362,7.15582zM0.24005,12.71539c-0.14784,-0.15851 -0.24011,-0.36872 -0.24011,-0.60214v-11.22707c0,-0.24687 0.10178,-0.46974 0.26543,-0.63063l5.7842,5.57648zM9.49997,9.15871l2.41528,-2.32839l6.80466,5.92568c-0.15957,0.15007 -0.37358,0.24371 -0.61054,0.24371h-17.21878c-0.23704,0 -0.45104,-0.09363 -0.61054,-0.24371l6.80466,-5.92568z" fill="#323232" fill-opacity="1"></path></g></g></svg>