<?xml version="1.0" encoding="UTF-8"?>
<svg id="SVGDoc" width="14" height="21" xmlns="http://www.w3.org/2000/svg" version="1.1" xmlns:xlink="http://www.w3.org/1999/xlink" xmlns:avocode="https://avocode.com/" viewBox="0 0 14 21"><defs></defs><desc>Generated with Avocode.</desc><g><g><title>Phone Auricular. Attribute as Freepik from Flaticon.com</title><path d="M5.59881,0.96522l0.9932,2.07308c0.34611,0.72241 0.10808,1.65134 -0.53179,2.07545l-1.15886,0.76672c-0.22573,0.15007 -0.31493,0.4671 -0.20013,0.70764l2.01209,4.19944v0l2.08182,4.34424c0.05765,0.12053 0.16329,0.21601 0.28782,0.2714c0.20528,0.09231 1.06337,-0.01292 1.88262,-0.07517l0.23432,-0.01794c0.81925,-0.06277 1.73235,0.4853 2.03941,1.22433l0.63794,1.53345c0.30735,0.7385 0.02081,1.72783 -0.70188,2.10578c-5.28595,2.76358 -7.3024,-2.28751 -7.3024,-2.28751v0l-2.64859,-5.52848v0l-2.57971,-5.38368v0c0,0 -2.67956,-4.75305 2.91009,-6.88125c0.76439,-0.29092 1.69823,0.15007 2.04406,0.87249z" fill="#000000" fill-opacity="1"></path><path d="M5.59881,0.96522l0.9932,2.07308c0.34611,0.72241 0.10808,1.65134 -0.53179,2.07545l-1.15886,0.76672c-0.22573,0.15007 -0.31493,0.4671 -0.20013,0.70764l2.01209,4.19944v0l2.08182,4.34424c0.05765,0.12053 0.16329,0.21601 0.28782,0.2714c0.20528,0.09231 1.06337,-0.01292 1.88262,-0.07517l0.23432,-0.01794c0.81925,-0.06277 1.73235,0.4853 2.03941,1.22433l0.63794,1.53345c0.30735,0.7385 0.02081,1.72783 -0.70188,2.10578c-5.28595,2.76358 -7.3024,-2.28751 -7.3024,-2.28751v0l-2.64859,-5.52848v0l-2.57971,-5.38368v0c0,0 -2.67956,-4.75305 2.91009,-6.88125c0.76439,-0.29092 1.69823,0.15007 2.04406,0.87249z" fill="#323232" fill-opacity="1"></path></g></g></svg>