<?xml version="1.0" encoding="UTF-8"?>
<svg id="SVGDoc" width="16" height="21" xmlns="http://www.w3.org/2000/svg" version="1.1" xmlns:xlink="http://www.w3.org/1999/xlink" xmlns:avocode="https://avocode.com/" viewBox="0 0 16 21"><defs></defs><desc>Generated with Avocode.</desc><g><g><title>PIN 2</title><path d="M8,20.99971c0,0 -7.99999,-8.77604 -7.99999,-13.12476c0,-4.34898 3.582,-7.87533 7.99999,-7.87533c4.41799,0 7.99999,3.52634 7.99999,7.87533c0,4.34872 -7.99999,13.12476 -7.99999,13.12476zM8,2.62474c-2.94542,0 -5.3333,2.35081 -5.3333,5.25022c0,2.89941 2.38788,5.24969 5.3333,5.24969c2.94535,0 5.33338,-2.35028 5.33338,-5.24969c0,-2.89941 -2.38802,-5.25022 -5.33338,-5.25022zM8,10.4998c-1.47278,0 -2.66676,-1.17527 -2.66676,-2.62485c0,-1.44984 1.19398,-2.62511 2.66676,-2.62511c1.47271,0 2.66654,1.17527 2.66654,2.62511c0,1.44957 -1.19383,2.62485 -2.66654,2.62485z" fill="#ffffff" fill-opacity="1"></path><path d="M8,20.99971c0,0 -7.99999,-8.77604 -7.99999,-13.12476c0,-4.34898 3.582,-7.87533 7.99999,-7.87533c4.41799,0 7.99999,3.52634 7.99999,7.87533c0,4.34872 -7.99999,13.12476 -7.99999,13.12476zM8,2.62474c-2.94542,0 -5.3333,2.35081 -5.3333,5.25022c0,2.89941 2.38788,5.24969 5.3333,5.24969c2.94535,0 5.33338,-2.35028 5.33338,-5.24969c0,-2.89941 -2.38802,-5.25022 -5.33338,-5.25022zM8,10.4998c-1.47278,0 -2.66676,-1.17527 -2.66676,-2.62485c0,-1.44984 1.19398,-2.62511 2.66676,-2.62511c1.47271,0 2.66654,1.17527 2.66654,2.62511c0,1.44957 -1.19383,2.62485 -2.66654,2.62485z" fill="#323232" fill-opacity="1"></path></g></g></svg>