<?xml version="1.0" encoding="UTF-8"?>
<svg id="SVGDoc" width="64" height="55" xmlns="http://www.w3.org/2000/svg" version="1.1" xmlns:xlink="http://www.w3.org/1999/xlink" xmlns:avocode="https://avocode.com/" viewBox="0 0 64 55"><defs></defs><desc>Generated with Avocode.</desc><g><g><title>CLOUD / UPLOAD</title><path d="M48.99994,43.99995c-1.65682,0 -2.99993,-1.34328 -2.99993,-3.00016c0,-1.65688 1.34311,-2.9999 2.99993,-2.9999c4.97067,0 8.99999,-4.02932 8.99999,-8.99996c0,-2.68023 -1.17803,-5.07957 -3.03676,-6.72828c-0.19183,-0.17012 -0.39153,-0.33127 -0.59731,-0.48477c-0.01338,-0.01029 -0.02668,-0.02031 -0.04005,-0.03007c-0.19419,-0.14374 -0.39489,-0.27826 -0.6006,-0.40618c-0.03176,-0.01978 -0.0638,-0.03904 -0.09599,-0.05829c-0.19169,-0.11605 -0.38795,-0.22472 -0.58844,-0.326c-0.05507,-0.02796 -0.11101,-0.05407 -0.16673,-0.08071c-0.18404,-0.08862 -0.37079,-0.17223 -0.56133,-0.24845c-0.08297,-0.03271 -0.16766,-0.06119 -0.25191,-0.09205c-0.17109,-0.06251 -0.34311,-0.12317 -0.51885,-0.17513c-0.11644,-0.03429 -0.23568,-0.06172 -0.35398,-0.09099c-0.15178,-0.03851 -0.3027,-0.07886 -0.45733,-0.10867c-0.16201,-0.03191 -0.32773,-0.05275 -0.49267,-0.07517c-0.1188,-0.01662 -0.23582,-0.03904 -0.35598,-0.05038c-0.29039,-0.02849 -0.58422,-0.04457 -0.88205,-0.04457c-0.09391,0 -0.18489,0.01055 -0.27816,0.01372c-0.09098,-0.51299 -0.20635,-1.01649 -0.34218,-1.51182c-0.03333,-0.12106 -0.07818,-0.23685 -0.11387,-0.35685c-0.11208,-0.37505 -0.22695,-0.74852 -0.36371,-1.11171c-0.0412,-0.11025 -0.09198,-0.21496 -0.1354,-0.32415c-0.14799,-0.36925 -0.30041,-0.73666 -0.47307,-1.09298c-0.04156,-0.08598 -0.08984,-0.16775 -0.13289,-0.25294c-0.18826,-0.37242 -0.38402,-0.74088 -0.59838,-1.0972c-2.96767,-4.94875 -8.37071,-8.26647 -14.56239,-8.26647c-6.19161,0 -11.59444,3.31772 -14.56218,8.26647c-0.21443,0.35633 -0.41027,0.72479 -0.5986,1.0972c-0.04284,0.08519 -0.09112,0.16695 -0.13268,0.25294c-0.17266,0.35633 -0.32523,0.72373 -0.47307,1.09298c-0.04334,0.10919 -0.0942,0.2139 -0.1354,0.32415c-0.13676,0.36318 -0.25184,0.73666 -0.36371,1.11171c-0.03576,0.12001 -0.08075,0.23579 -0.11387,0.35685c-0.1359,0.49532 -0.2512,0.99882 -0.34218,1.51182c-0.09327,-0.00317 -0.18432,-0.01372 -0.27816,-0.01372c-0.2979,0 -0.59166,0.01609 -0.88212,0.04457c-0.12016,0.01134 -0.23711,0.03376 -0.35591,0.05038c-0.16501,0.02242 -0.33059,0.04326 -0.49281,0.07517c-0.15457,0.0298 -0.30556,0.07016 -0.45719,0.10867c-0.11845,0.02928 -0.23754,0.05671 -0.35391,0.09099c-0.17581,0.05196 -0.34783,0.11262 -0.51892,0.17513c-0.08419,0.03086 -0.16887,0.05934 -0.25198,0.09205c-0.19054,0.07622 -0.37723,0.15983 -0.56119,0.24845c-0.05579,0.02664 -0.11187,0.05275 -0.16687,0.08071c-0.20063,0.10128 -0.3969,0.20995 -0.58844,0.326c-0.03204,0.01925 -0.06437,0.03851 -0.09613,0.05829c-0.20556,0.12792 -0.40627,0.26243 -0.60053,0.40618c-0.01345,0.00976 -0.02661,0.01978 -0.04005,0.03007c-0.20571,0.1535 -0.40534,0.31465 -0.59724,0.48477c-1.85888,1.6487 -3.03669,4.04804 -3.03669,6.72828c0,4.97064 4.02932,8.99996 8.99999,8.99996c1.65675,0 2.99993,1.34302 2.99993,2.9999c0,1.65688 -1.34318,3.00016 -2.99993,3.00016c-8.28438,0 -15.00013,-6.71588 -15.00013,-15.00002c0,-6.75755 4.46992,-12.46802 10.61347,-14.34487c3.3386,-8.56952 11.63421,-14.65504 21.3865,-14.65504c9.75251,0 18.04805,6.08552 21.38672,14.65504c6.1434,1.87685 10.61339,7.58731 10.61339,14.34487c0,8.28414 -6.71589,15.00002 -15.00006,15.00002zM20.77001,36.99289l0.00565,-0.00607c0.002,-0.00211 0.00408,-0.00448 0.00601,-0.00712l8.98848,-9.98665l0.00808,0.00712c0.5491,-0.60953 1.3366,-1.00014 2.22166,-1.00014c0.88534,0 1.6727,0.39061 2.22187,1.00014l0.00815,-0.00712l8.98962,9.9885c0.00086,0.00106 0.00165,0.00185 0.00257,0.00264l0.00772,0.0087h-0.00021c0.41864,0.46499 0.69373,1.06133 0.75624,1.71965c0.00021,0.00185 0.00036,0.00396 0.00043,0.00607c0.00873,0.09205 0.01352,0.18489 0.01352,0.27931c0,0.00079 0.00014,0.00158 0.00014,0.00185c0,1.65714 -1.34311,3.00016 -3,3.00016c-0.03269,0 -0.06509,-0.00158 -0.09749,-0.00264c-0.01988,-0.00079 -0.03984,-0.00079 -0.05951,-0.00185c-0.02103,-0.00106 -0.04177,-0.00317 -0.06273,-0.00448c-0.03362,-0.00264 -0.06716,-0.00475 -0.10035,-0.00818c-0.0113,-0.00132 -0.02253,-0.00317 -0.03383,-0.00448c-0.04435,-0.00528 -0.08848,-0.01108 -0.13218,-0.01846c-0.00057,0 -0.00114,-0.00026 -0.00172,-0.00026c-0.68715,-0.11236 -1.29576,-0.45761 -1.74179,-0.95293l-0.00029,0.00026l-3.77026,-4.18915v15.18201c0,1.65688 -1.34304,3.00043 -2.99993,3.00043c-1.65689,0 -2.99993,-1.34355 -2.99993,-3.00043v-15.18201l-3.77018,4.18915l-0.00021,-0.00026c-0.4456,0.49453 -1.05357,0.83978 -1.73986,0.95267c-0.00136,0.00026 -0.00286,0.00053 -0.00422,0.00053c-0.04292,0.00739 -0.08619,0.01292 -0.12968,0.01794c-0.01202,0.00185 -0.02403,0.00369 -0.03612,0.00501c-0.0324,0.00343 -0.06523,0.00554 -0.09799,0.00791c-0.0216,0.00158 -0.04313,0.00369 -0.0648,0.00501c-0.0191,0.00079 -0.03834,0.00079 -0.05744,0.00158c-0.03304,0.00106 -0.06602,0.00264 -0.09942,0.00264c-1.13926,0 -2.12996,-0.63511 -2.63801,-1.57011c-0.23096,-0.42517 -0.36206,-0.91231 -0.36206,-1.43006c0,-0.77173 0.29161,-1.47489 0.77026,-2.00688z" fill="#ffffff" fill-opacity="1"></path></g></g></svg>