<svg width="14" height="21" xmlns="http://www.w3.org/2000/svg"><path d="m5.599.965.993 2.073c.346.723.108 1.652-.532 2.076l-1.159.766a.578.578 0 0 0-.2.708l2.012 4.2 2.082 4.344c.058.12.163.216.288.271.205.092 1.063-.013 1.883-.075l.234-.018c.82-.063 1.732.485 2.04 1.224l.637 1.534c.308.738.021 1.728-.702 2.106-5.286 2.763-7.302-2.288-7.302-2.288l-2.649-5.528-2.58-5.384S-2.034 2.221 3.555.093C4.32-.198 5.254.243 5.6.965z"/><path d="m5.599.965.993 2.073c.346.723.108 1.652-.532 2.076l-1.159.766a.578.578 0 0 0-.2.708l2.012 4.2 2.082 4.344c.058.12.163.216.288.271.205.092 1.063-.013 1.883-.075l.234-.018c.82-.063 1.732.485 2.04 1.224l.637 1.534c.308.738.021 1.728-.702 2.106-5.286 2.763-7.302-2.288-7.302-2.288l-2.649-5.528-2.58-5.384S-2.034 2.221 3.555.093C4.32-.198 5.254.243 5.6.965z" fill="#323232"/></svg>