<svg width="19" height="13" xmlns="http://www.w3.org/2000/svg"><path d="M12.95 5.832 18.734.256c.164.16.266.383.266.63v11.227a.88.88 0 0 1-.24.602zM.296.23A.886.886 0 0 1 .891 0h17.218c.23 0 .437.088.595.23L9.5 7.386zM.24 12.715a.88.88 0 0 1-.24-.602V.886C0 .64.102.416.265.256L6.05 5.832zM9.5 9.16l2.415-2.329 6.805 5.926a.888.888 0 0 1-.61.244H.89a.888.888 0 0 1-.61-.244L7.085 6.83z" fill="#fff"/><path d="M12.95 5.832 18.734.256c.164.16.266.383.266.63v11.227a.88.88 0 0 1-.24.602zM.296.23A.886.886 0 0 1 .891 0h17.218c.23 0 .437.088.595.23L9.5 7.386zM.24 12.715a.88.88 0 0 1-.24-.602V.886C0 .64.102.416.265.256L6.05 5.832zM9.5 9.16l2.415-2.329 6.805 5.926a.888.888 0 0 1-.61.244H.89a.888.888 0 0 1-.61-.244L7.085 6.83z" fill="#323232"/></svg>