<svg width="64" height="55" xmlns="http://www.w3.org/2000/svg"><path d="M49 44a3 3 0 0 1 0-6 9 9 0 0 0 9-9 8.969 8.969 0 0 0-3.674-7.243 8.963 8.963 0 0 0-1.285-.79c-.055-.029-.111-.055-.167-.081a8.994 8.994 0 0 0-.561-.249c-.083-.033-.168-.061-.252-.092a8.707 8.707 0 0 0-.519-.175c-.116-.034-.236-.062-.354-.091-.152-.038-.303-.079-.457-.109-.162-.032-.328-.052-.493-.075-.119-.016-.236-.039-.356-.05A9.024 9.024 0 0 0 49 20c-.094 0-.185.01-.278.014a16.82 16.82 0 0 0-.342-1.512c-.034-.12-.079-.237-.114-.357a16.806 16.806 0 0 0-.364-1.111c-.041-.11-.092-.215-.135-.325-.148-.369-.3-.736-.473-1.093-.042-.086-.09-.167-.133-.253-.189-.372-.384-.74-.599-1.097C43.595 9.318 38.192 6 32 6s-11.595 3.318-14.562 8.266c-.215.357-.41.725-.599 1.097-.043.086-.091.167-.133.253-.172.357-.325.724-.473 1.093-.043.11-.094.214-.135.325-.137.363-.252.736-.364 1.111-.035.12-.08.236-.114.357-.136.495-.25.999-.342 1.512C15.185 20.01 15.094 20 15 20c-.298 0-.592.016-.882.045-.12.011-.237.034-.356.05-.165.023-.33.043-.493.075-.154.03-.305.07-.457.109-.118.03-.238.057-.354.091a8.692 8.692 0 0 0-.519.175c-.084.031-.169.06-.252.092a8.97 8.97 0 0 0-.561.249c-.056.026-.112.052-.167.08-.2.102-.397.21-.588.326l-.096.059a9.015 9.015 0 0 0-1.238.92A8.968 8.968 0 0 0 6 29a9 9 0 0 0 9 9 3 3 0 1 1 0 6C6.716 44 0 37.284 0 29c0-6.758 4.47-12.468 10.613-14.345C13.952 6.085 22.248 0 32 0s18.048 6.086 21.387 14.655C59.53 16.532 64 22.242 64 29c0 8.284-6.716 15-15 15zm-28.23-7.007.006-.006a.073.073 0 0 0 .006-.007l8.988-9.987.008.007c.55-.61 1.337-1 2.222-1s1.673.39 2.222 1l.008-.007 8.99 9.989a.02.02 0 0 0 .002.002l.008.009a2.988 2.988 0 0 1 .77 2.005V39a3 3 0 0 1-3 3c-.033 0-.065-.002-.098-.003-.02 0-.04 0-.06-.002-.02 0-.04-.003-.062-.004l-.1-.008-.034-.005a2.737 2.737 0 0 1-.132-.018h-.002a2.993 2.993 0 0 1-1.742-.953L35 36.817V52a3 3 0 1 1-6 0V36.818l-3.77 4.189a2.997 2.997 0 0 1-1.91.976l-.098.008-.065.005-.058.001L23 42a3 3 0 0 1-2.23-5.007z" fill="#fff"/></svg>